<svg xmlns="http://www.w3.org/2000/svg" xmlns:xlink="http://www.w3.org/1999/xlink" width="500" zoomAndPan="magnify" viewBox="0 0 375 374.999991" height="500" preserveAspectRatio="xMidYMid meet" version="1.0"><defs><g/><clipPath id="b37dd8cedd"><path d="M 41.480469 94.824219 L 342.980469 94.824219 L 342.980469 146.574219 L 41.480469 146.574219 Z M 41.480469 94.824219 " clip-rule="nonzero"/></clipPath></defs><g clip-path="url(#b37dd8cedd)"><path fill="#d9d9d9" d="M 343.203125 144.90625 C 341.96875 147.734375 313.269531 144.152344 309.46875 143.710938 C 307.429688 143.476562 305.726562 143.28125 304.65625 143.171875 L 304.21875 143.128906 L 304.019531 142.738281 C 302.050781 138.898438 299.238281 135.375 295.21875 132.957031 C 291.191406 130.53125 285.9375 129.207031 279.085938 129.765625 C 274.613281 130.128906 270.941406 131.300781 267.917969 133.011719 C 264.902344 134.71875 262.527344 136.972656 260.660156 139.496094 L 260.402344 139.84375 L 259.976562 139.820312 C 248.777344 139.226562 237.085938 138.765625 225.015625 138.460938 C 213.304688 138.160156 201.136719 138.007812 188.617188 138.007812 C 184.382812 138.007812 180.4375 138.019531 176.777344 138.050781 C 172.695312 138.085938 168.617188 138.136719 164.539062 138.203125 L 164.292969 137.839844 C 162.554688 135.257812 161.164062 132.839844 160.546875 131.007812 C 160.25 130.121094 160.125 129.339844 160.210938 128.703125 C 160.324219 127.890625 160.742188 127.308594 161.523438 127.015625 C 161.890625 126.878906 162.328125 126.820312 162.84375 126.847656 C 198.734375 128.808594 211.90625 129.6875 211.90625 129.625 C 211.921875 129.390625 192.890625 128.046875 171.421875 126 C 158.734375 124.792969 145.203125 123.5 134.207031 122.351562 L 134.152344 122.34375 C 134.132812 122.339844 127.191406 121.074219 131.917969 128.550781 C 132.71875 129.820312 133.660156 131.257812 134.753906 132.789062 C 135.84375 134.316406 137.082031 135.9375 138.484375 137.578125 L 139.566406 138.84375 L 137.902344 138.902344 C 133.390625 139.066406 128.925781 139.25 124.519531 139.457031 C 120.136719 139.664062 115.796875 139.890625 111.507812 140.140625 L 111.007812 140.171875 L 110.765625 139.730469 C 109.121094 136.796875 106.804688 134.144531 103.578125 132.15625 C 100.328125 130.15625 96.140625 128.820312 90.769531 128.542969 C 82.8125 128.132812 77.046875 129.953125 72.871094 132.851562 C 68.710938 135.742188 66.109375 139.714844 64.480469 143.617188 L 64.300781 144.054688 L 63.828125 144.109375 C 60.667969 144.464844 57.664062 144.828125 54.820312 145.191406 C 51.980469 145.554688 49.164062 145.941406 46.371094 146.347656 L 45.808594 146.429688 L 45.542969 145.917969 C 43.925781 142.792969 42.382812 139.132812 41.765625 135.984375 C 41.453125 134.382812 41.375 132.898438 41.640625 131.65625 C 41.9375 130.296875 42.628906 129.226562 43.84375 128.597656 C 44.234375 128.394531 44.675781 128.242188 45.167969 128.144531 C 52.101562 126.785156 53.738281 124.089844 53.171875 121.203125 C 52.578125 118.179688 49.785156 114.824219 47.78125 112.417969 C 46.578125 110.96875 45.632812 109.835938 45.464844 109.085938 L 45.21875 107.980469 L 46.339844 108.109375 C 57.902344 109.4375 68.128906 109.851562 77.371094 109.636719 C 86.605469 109.425781 94.886719 108.585938 102.554688 107.40625 L 102.6875 107.386719 L 102.832031 107.417969 C 130.867188 113.101562 197.300781 118.226562 232.792969 119.898438 C 239.925781 120.234375 245.792969 120.429688 249.839844 120.464844 C 253.761719 120.496094 254.929688 120.71875 251.757812 119.074219 C 251.230469 118.800781 250.648438 118.449219 249.980469 118.066406 C 234.851562 109.394531 219.011719 104.453125 202.726562 102.371094 C 184.730469 100.074219 166.171875 101.261719 147.410156 104.765625 C 148.097656 105.96875 149.953125 108.429688 154.769531 111.683594 L 157.746094 113.691406 L 154.199219 113.144531 C 150.171875 112.527344 146.09375 112.050781 141.859375 111.554688 C 133.292969 110.550781 124.089844 109.472656 113.5 107.023438 L 109.886719 106.1875 L 113.523438 105.453125 C 119.289062 104.285156 124.863281 102.96875 130.324219 101.675781 C 164 93.703125 193.417969 86.738281 263.632812 117.960938 C 284.097656 116.851562 315.792969 129.195312 332.210938 137.292969 C 335.605469 138.96875 338.355469 140.460938 340.21875 141.621094 C 342.441406 143 343.527344 144.164062 343.203125 144.90625 Z M 339.371094 142.984375 C 337.542969 141.851562 334.839844 140.382812 331.5 138.734375 C 315.179688 130.6875 283.664062 118.398438 263.527344 119.578125 L 263.339844 119.589844 L 263.15625 119.507812 C 193.316406 88.414062 164.117188 95.328125 130.6875 103.242188 C 126.417969 104.253906 122.074219 105.28125 117.515625 106.257812 C 126.503906 108.136719 134.519531 109.074219 142.042969 109.953125 C 145.179688 110.320312 148.234375 110.679688 151.226562 111.089844 C 146.207031 107.101562 145.488281 104.390625 145.484375 104.378906 L 145.25 103.539062 L 146.109375 103.371094 C 165.363281 99.695312 184.425781 98.414062 202.929688 100.78125 C 221.457031 103.148438 239.40625 109.167969 256.410156 120.089844 C 256.617188 120.222656 256.753906 120.394531 256.824219 120.601562 C 257.175781 121.640625 254.621094 122.109375 249.828125 122.070312 C 245.730469 122.035156 239.839844 121.839844 232.714844 121.503906 C 197.242188 119.832031 130.871094 114.710938 102.664062 109.019531 C 94.996094 110.191406 86.695312 111.027344 77.402344 111.242188 C 69.042969 111.433594 59.902344 111.121094 49.726562 110.09375 C 47.425781 109.859375 47.503906 109.574219 49.015625 111.390625 C 51.128906 113.933594 54.082031 117.480469 54.75 120.894531 C 55.492188 124.664062 53.625 128.125 45.476562 129.726562 C 45.132812 129.792969 44.835938 129.894531 44.582031 130.023438 C 43.839844 130.410156 43.410156 131.097656 43.214844 131.992188 C 42.996094 133.007812 43.070312 134.273438 43.34375 135.675781 C 43.898438 138.492188 45.25 141.78125 46.710938 144.671875 C 49.210938 144.3125 51.847656 143.953125 54.621094 143.597656 C 57.460938 143.234375 60.316406 142.886719 63.183594 142.5625 C 64.921875 138.558594 67.65625 134.515625 71.957031 131.53125 C 76.402344 128.445312 82.496094 126.507812 90.851562 126.9375 C 96.519531 127.230469 100.957031 128.652344 104.421875 130.785156 C 107.742188 132.828125 110.164062 135.523438 111.917969 138.507812 C 115.996094 138.273438 120.175781 138.054688 124.449219 137.851562 C 128.300781 137.671875 132.222656 137.507812 136.210938 137.359375 C 135.199219 136.113281 134.277344 134.890625 133.445312 133.71875 C 132.332031 132.164062 131.375 130.699219 130.558594 129.40625 C 123.988281 119.015625 134.054688 120.695312 134.414062 120.757812 C 145.53125 121.917969 158.96875 123.199219 171.574219 124.402344 C 193.855469 126.527344 214.957031 129.074219 213.511719 129.707031 C 212.460938 130.28125 199.820312 130.476562 162.761719 128.453125 C 162.464844 128.4375 162.242188 128.460938 162.082031 128.519531 C 161.921875 128.582031 161.832031 128.722656 161.804688 128.925781 C 161.753906 129.304688 161.851562 129.839844 162.070312 130.496094 C 162.566406 131.96875 163.636719 133.898438 165.011719 136.011719 C 165.53125 136.8125 165.523438 136.582031 166.527344 136.566406 C 169.910156 136.515625 173.320312 136.472656 176.761719 136.445312 C 180.9375 136.410156 184.894531 136.394531 188.617188 136.394531 C 200.996094 136.394531 213.179688 136.554688 225.054688 136.855469 C 237.027344 137.160156 248.589844 137.609375 259.632812 138.191406 C 261.582031 135.640625 264.039062 133.363281 267.125 131.613281 C 270.34375 129.789062 274.242188 128.542969 278.957031 128.160156 C 286.179688 127.570312 291.75 128.988281 296.046875 131.578125 C 300.210938 134.085938 303.160156 137.683594 305.246094 141.617188 C 306.4375 141.742188 307.917969 141.914062 309.652344 142.113281 C 311.714844 142.351562 346.652344 147.511719 339.371094 142.984375 Z M 339.371094 142.984375 " fill-opacity="1" fill-rule="nonzero"/></g><g fill="#f90000" fill-opacity="0.4"><g transform="translate(71.798392, 211.172951)"><g><path d="M 37.546875 -54.625 L 37.546875 -45.625 C 37.546875 -44.738281 37.101562 -44.296875 36.21875 -44.296875 L 27.890625 -44.296875 C 27.003906 -44.296875 26.5625 -44.738281 26.5625 -45.625 L 26.5625 -52.296875 C 26.5625 -54.515625 25.453125 -55.625 23.234375 -55.625 L 18.90625 -55.625 C 16.6875 -55.625 15.578125 -54.515625 15.578125 -52.296875 L 15.578125 -14.328125 C 15.578125 -12.097656 16.6875 -10.984375 18.90625 -10.984375 L 23.234375 -10.984375 C 25.453125 -10.984375 26.5625 -12.097656 26.5625 -14.328125 L 26.5625 -20.984375 C 26.5625 -21.867188 27.003906 -22.3125 27.890625 -22.3125 L 36.21875 -22.3125 C 37.101562 -22.3125 37.546875 -21.867188 37.546875 -20.984375 L 37.546875 -11.984375 C 37.546875 -8.097656 36.519531 -5.128906 34.46875 -3.078125 C 32.414062 -1.023438 29.445312 0 25.5625 0 L 16.234375 0 C 12.347656 0 9.363281 -1.023438 7.28125 -3.078125 C 5.195312 -5.128906 4.15625 -8.097656 4.15625 -11.984375 L 4.15625 -54.625 C 4.15625 -58.5625 5.195312 -61.539062 7.28125 -63.5625 C 9.363281 -65.59375 12.347656 -66.609375 16.234375 -66.609375 L 25.5625 -66.609375 C 29.445312 -66.609375 32.414062 -65.59375 34.46875 -63.5625 C 36.519531 -61.539062 37.546875 -58.5625 37.546875 -54.625 Z M 37.546875 -54.625 "/></g></g></g><g fill="#f90000" fill-opacity="1"><g transform="translate(68.117775, 207.492333)"><g><path d="M 37.546875 -54.625 L 37.546875 -45.625 C 37.546875 -44.738281 37.101562 -44.296875 36.21875 -44.296875 L 27.890625 -44.296875 C 27.003906 -44.296875 26.5625 -44.738281 26.5625 -45.625 L 26.5625 -52.296875 C 26.5625 -54.515625 25.453125 -55.625 23.234375 -55.625 L 18.90625 -55.625 C 16.6875 -55.625 15.578125 -54.515625 15.578125 -52.296875 L 15.578125 -14.328125 C 15.578125 -12.097656 16.6875 -10.984375 18.90625 -10.984375 L 23.234375 -10.984375 C 25.453125 -10.984375 26.5625 -12.097656 26.5625 -14.328125 L 26.5625 -20.984375 C 26.5625 -21.867188 27.003906 -22.3125 27.890625 -22.3125 L 36.21875 -22.3125 C 37.101562 -22.3125 37.546875 -21.867188 37.546875 -20.984375 L 37.546875 -11.984375 C 37.546875 -8.097656 36.519531 -5.128906 34.46875 -3.078125 C 32.414062 -1.023438 29.445312 0 25.5625 0 L 16.234375 0 C 12.347656 0 9.363281 -1.023438 7.28125 -3.078125 C 5.195312 -5.128906 4.15625 -8.097656 4.15625 -11.984375 L 4.15625 -54.625 C 4.15625 -58.5625 5.195312 -61.539062 7.28125 -63.5625 C 9.363281 -65.59375 12.347656 -66.609375 16.234375 -66.609375 L 25.5625 -66.609375 C 29.445312 -66.609375 32.414062 -65.59375 34.46875 -63.5625 C 36.519531 -61.539062 37.546875 -58.5625 37.546875 -54.625 Z M 37.546875 -54.625 "/></g></g></g><g fill="#f90000" fill-opacity="0.4"><g transform="translate(118.509337, 211.172951)"><g><path d="M 43.46875 0 L 35.390625 0 C 34.671875 0 34.226562 -0.390625 34.0625 -1.171875 L 31.390625 -11.65625 L 15.734375 -11.65625 L 13.15625 -1.171875 C 12.988281 -0.390625 12.546875 0 11.828125 0 L 3.65625 0 C 2.664062 0 2.304688 -0.472656 2.578125 -1.421875 L 16.40625 -57.125 C 16.570312 -57.894531 17.039062 -58.28125 17.8125 -58.28125 L 29.390625 -58.28125 C 30.171875 -58.28125 30.644531 -57.894531 30.8125 -57.125 L 44.625 -1.421875 C 44.90625 -0.472656 44.519531 0 43.46875 0 Z M 28.8125 -21.3125 L 23.5625 -43.96875 L 18.3125 -21.3125 Z M 28.8125 -21.3125 "/></g></g></g><g fill="#f90000" fill-opacity="0.4"><g transform="translate(170.713788, 211.172951)"><g><path d="M 37.46875 -46.296875 L 37.46875 -29.5625 C 37.46875 -24.726562 35.914062 -21.34375 32.8125 -19.40625 L 37.140625 -1.5 C 37.410156 -0.5 37.019531 0 35.96875 0 L 27.8125 0 C 27.03125 0 26.554688 -0.390625 26.390625 -1.171875 L 22.390625 -17.5625 L 14.984375 -17.5625 L 14.984375 -1.328125 C 14.984375 -0.441406 14.539062 0 13.65625 0 L 5.5 0 C 4.601562 0 4.15625 -0.441406 4.15625 -1.328125 L 4.15625 -56.953125 C 4.15625 -57.835938 4.601562 -58.28125 5.5 -58.28125 L 25.484375 -58.28125 C 29.421875 -58.28125 32.398438 -57.265625 34.421875 -55.234375 C 36.453125 -53.210938 37.46875 -50.234375 37.46875 -46.296875 Z M 14.984375 -28.3125 L 23.3125 -28.3125 C 25.53125 -28.3125 26.640625 -29.421875 26.640625 -31.640625 L 26.640625 -44.21875 C 26.640625 -46.4375 25.53125 -47.546875 23.3125 -47.546875 L 14.984375 -47.546875 Z M 14.984375 -28.3125 "/></g></g></g><g fill="#d9d9d9" fill-opacity="1"><g transform="translate(114.828719, 207.492333)"><g><path d="M 43.46875 0 L 35.390625 0 C 34.671875 0 34.226562 -0.390625 34.0625 -1.171875 L 31.390625 -11.65625 L 15.734375 -11.65625 L 13.15625 -1.171875 C 12.988281 -0.390625 12.546875 0 11.828125 0 L 3.65625 0 C 2.664062 0 2.304688 -0.472656 2.578125 -1.421875 L 16.40625 -57.125 C 16.570312 -57.894531 17.039062 -58.28125 17.8125 -58.28125 L 29.390625 -58.28125 C 30.171875 -58.28125 30.644531 -57.894531 30.8125 -57.125 L 44.625 -1.421875 C 44.90625 -0.472656 44.519531 0 43.46875 0 Z M 28.8125 -21.3125 L 23.5625 -43.96875 L 18.3125 -21.3125 Z M 28.8125 -21.3125 "/></g></g></g><g fill="#d9d9d9" fill-opacity="1"><g transform="translate(167.03317, 207.492333)"><g><path d="M 37.46875 -46.296875 L 37.46875 -29.5625 C 37.46875 -24.726562 35.914062 -21.34375 32.8125 -19.40625 L 37.140625 -1.5 C 37.410156 -0.5 37.019531 0 35.96875 0 L 27.8125 0 C 27.03125 0 26.554688 -0.390625 26.390625 -1.171875 L 22.390625 -17.5625 L 14.984375 -17.5625 L 14.984375 -1.328125 C 14.984375 -0.441406 14.539062 0 13.65625 0 L 5.5 0 C 4.601562 0 4.15625 -0.441406 4.15625 -1.328125 L 4.15625 -56.953125 C 4.15625 -57.835938 4.601562 -58.28125 5.5 -58.28125 L 25.484375 -58.28125 C 29.421875 -58.28125 32.398438 -57.265625 34.421875 -55.234375 C 36.453125 -53.210938 37.46875 -50.234375 37.46875 -46.296875 Z M 14.984375 -28.3125 L 23.3125 -28.3125 C 25.53125 -28.3125 26.640625 -29.421875 26.640625 -31.640625 L 26.640625 -44.21875 C 26.640625 -46.4375 25.53125 -47.546875 23.3125 -47.546875 L 14.984375 -47.546875 Z M 14.984375 -28.3125 "/></g></g></g><g fill="#f90000" fill-opacity="0.4"><g transform="translate(217.358483, 211.172951)"><g><path d="M 35.21875 -31.890625 L 16.65625 -21.90625 C 15.875 -21.457031 15.484375 -20.789062 15.484375 -19.90625 L 15.484375 -12.65625 C 15.484375 -11.539062 16.039062 -10.984375 17.15625 -10.984375 L 26.140625 -10.984375 L 26.140625 -14.40625 C 26.140625 -15.507812 26.695312 -16.0625 27.8125 -16.0625 L 35.796875 -16.0625 C 36.910156 -16.0625 37.46875 -15.507812 37.46875 -14.40625 L 37.46875 -1.671875 C 37.46875 -0.554688 36.910156 0 35.796875 0 L 5.828125 0 C 4.710938 0 4.15625 -0.554688 4.15625 -1.671875 L 4.15625 -26.234375 C 4.15625 -27.003906 4.320312 -27.613281 4.65625 -28.0625 C 4.988281 -28.507812 5.546875 -28.925781 6.328125 -29.3125 L 26.140625 -39.96875 L 26.140625 -52.296875 C 26.140625 -54.515625 25.03125 -55.625 22.8125 -55.625 L 18.8125 -55.625 C 16.59375 -55.625 15.484375 -54.515625 15.484375 -52.296875 L 15.484375 -45.796875 C 15.484375 -44.910156 15.039062 -44.46875 14.15625 -44.46875 L 5.5 -44.46875 C 4.601562 -44.46875 4.15625 -44.910156 4.15625 -45.796875 L 4.15625 -54.625 C 4.15625 -58.5625 5.179688 -61.539062 7.234375 -63.5625 C 9.296875 -65.59375 12.269531 -66.609375 16.15625 -66.609375 L 25.484375 -66.609375 C 29.367188 -66.609375 32.335938 -65.59375 34.390625 -63.5625 C 36.441406 -61.539062 37.46875 -58.5625 37.46875 -54.625 L 37.46875 -34.96875 C 37.46875 -34.195312 37.285156 -33.601562 36.921875 -33.1875 C 36.566406 -32.769531 36 -32.335938 35.21875 -31.890625 Z M 35.21875 -31.890625 "/></g></g></g><g fill="#f90000" fill-opacity="0.4"><g transform="translate(263.984623, 211.172951)"><g><path d="M 28.140625 -66.609375 L 35.796875 -66.609375 C 36.242188 -66.609375 36.632812 -66.441406 36.96875 -66.109375 C 37.300781 -65.773438 37.46875 -65.390625 37.46875 -64.953125 L 37.46875 -11.984375 C 37.46875 -8.097656 36.453125 -5.128906 34.421875 -3.078125 C 32.398438 -1.023438 29.421875 0 25.484375 0 L 16.15625 0 C 12.269531 0 9.296875 -1.023438 7.234375 -3.078125 C 5.179688 -5.128906 4.15625 -8.097656 4.15625 -11.984375 L 4.15625 -64.953125 C 4.15625 -65.390625 4.320312 -65.773438 4.65625 -66.109375 C 4.988281 -66.441406 5.378906 -66.609375 5.828125 -66.609375 L 13.828125 -66.609375 C 14.265625 -66.609375 14.648438 -66.441406 14.984375 -66.109375 C 15.316406 -65.773438 15.484375 -65.390625 15.484375 -64.953125 L 15.484375 -14.328125 C 15.484375 -12.097656 16.59375 -10.984375 18.8125 -10.984375 L 23.140625 -10.984375 C 25.367188 -10.984375 26.484375 -12.097656 26.484375 -14.328125 L 26.484375 -64.953125 C 26.484375 -65.390625 26.648438 -65.773438 26.984375 -66.109375 C 27.316406 -66.441406 27.703125 -66.609375 28.140625 -66.609375 Z M 28.140625 -66.609375 "/></g></g></g><g fill="#f90000" fill-opacity="1"><g transform="translate(213.677866, 207.492333)"><g><path d="M 35.21875 -31.890625 L 16.65625 -21.90625 C 15.875 -21.457031 15.484375 -20.789062 15.484375 -19.90625 L 15.484375 -12.65625 C 15.484375 -11.539062 16.039062 -10.984375 17.15625 -10.984375 L 26.140625 -10.984375 L 26.140625 -14.40625 C 26.140625 -15.507812 26.695312 -16.0625 27.8125 -16.0625 L 35.796875 -16.0625 C 36.910156 -16.0625 37.46875 -15.507812 37.46875 -14.40625 L 37.46875 -1.671875 C 37.46875 -0.554688 36.910156 0 35.796875 0 L 5.828125 0 C 4.710938 0 4.15625 -0.554688 4.15625 -1.671875 L 4.15625 -26.234375 C 4.15625 -27.003906 4.320312 -27.613281 4.65625 -28.0625 C 4.988281 -28.507812 5.546875 -28.925781 6.328125 -29.3125 L 26.140625 -39.96875 L 26.140625 -52.296875 C 26.140625 -54.515625 25.03125 -55.625 22.8125 -55.625 L 18.8125 -55.625 C 16.59375 -55.625 15.484375 -54.515625 15.484375 -52.296875 L 15.484375 -45.796875 C 15.484375 -44.910156 15.039062 -44.46875 14.15625 -44.46875 L 5.5 -44.46875 C 4.601562 -44.46875 4.15625 -44.910156 4.15625 -45.796875 L 4.15625 -54.625 C 4.15625 -58.5625 5.179688 -61.539062 7.234375 -63.5625 C 9.296875 -65.59375 12.269531 -66.609375 16.15625 -66.609375 L 25.484375 -66.609375 C 29.367188 -66.609375 32.335938 -65.59375 34.390625 -63.5625 C 36.441406 -61.539062 37.46875 -58.5625 37.46875 -54.625 L 37.46875 -34.96875 C 37.46875 -34.195312 37.285156 -33.601562 36.921875 -33.1875 C 36.566406 -32.769531 36 -32.335938 35.21875 -31.890625 Z M 35.21875 -31.890625 "/></g></g></g><g fill="#f90000" fill-opacity="1"><g transform="translate(260.304005, 207.492333)"><g><path d="M 28.140625 -66.609375 L 35.796875 -66.609375 C 36.242188 -66.609375 36.632812 -66.441406 36.96875 -66.109375 C 37.300781 -65.773438 37.46875 -65.390625 37.46875 -64.953125 L 37.46875 -11.984375 C 37.46875 -8.097656 36.453125 -5.128906 34.421875 -3.078125 C 32.398438 -1.023438 29.421875 0 25.484375 0 L 16.15625 0 C 12.269531 0 9.296875 -1.023438 7.234375 -3.078125 C 5.179688 -5.128906 4.15625 -8.097656 4.15625 -11.984375 L 4.15625 -64.953125 C 4.15625 -65.390625 4.320312 -65.773438 4.65625 -66.109375 C 4.988281 -66.441406 5.378906 -66.609375 5.828125 -66.609375 L 13.828125 -66.609375 C 14.265625 -66.609375 14.648438 -66.441406 14.984375 -66.109375 C 15.316406 -65.773438 15.484375 -65.390625 15.484375 -64.953125 L 15.484375 -14.328125 C 15.484375 -12.097656 16.59375 -10.984375 18.8125 -10.984375 L 23.140625 -10.984375 C 25.367188 -10.984375 26.484375 -12.097656 26.484375 -14.328125 L 26.484375 -64.953125 C 26.484375 -65.390625 26.648438 -65.773438 26.984375 -66.109375 C 27.316406 -66.441406 27.703125 -66.609375 28.140625 -66.609375 Z M 28.140625 -66.609375 "/></g></g></g><g fill="#e5e7e9" fill-opacity="1"><g transform="translate(135.183418, 233.24796)"><g><path d="M 6.34375 0.15625 C 6.082031 0.144531 5.816406 -0.171875 5.546875 -0.796875 C 5.367188 -1.191406 5.210938 -1.648438 5.078125 -2.171875 C 4.828125 -2.140625 4.414062 -2.101562 3.84375 -2.0625 C 3.3125 -2.019531 2.90625 -1.976562 2.625 -1.9375 C 2.46875 -1.5625 2.195312 -1 1.8125 -0.25 C 1.65625 -0.0078125 1.445312 0.109375 1.1875 0.109375 C 1 0.109375 0.832031 0.046875 0.6875 -0.078125 C 0.539062 -0.203125 0.46875 -0.363281 0.46875 -0.5625 C 0.46875 -0.726562 0.710938 -1.3125 1.203125 -2.3125 C 1.160156 -2.414062 1.140625 -2.515625 1.140625 -2.609375 C 1.148438 -2.773438 1.316406 -2.90625 1.640625 -3 C 2.117188 -3.832031 2.648438 -4.691406 3.234375 -5.578125 C 4.085938 -6.867188 4.613281 -7.515625 4.8125 -7.515625 C 5.175781 -7.515625 5.421875 -7.285156 5.546875 -6.828125 C 5.617188 -6.472656 5.726562 -5.929688 5.875 -5.203125 C 6.082031 -4.222656 6.332031 -3.109375 6.625 -1.859375 C 6.65625 -1.765625 6.742188 -1.539062 6.890625 -1.1875 C 7.015625 -0.894531 7.078125 -0.675781 7.078125 -0.53125 C 7.078125 -0.332031 7 -0.164062 6.84375 -0.03125 C 6.695312 0.09375 6.53125 0.15625 6.34375 0.15625 Z M 4.453125 -5.0625 C 4.191406 -4.601562 3.828125 -3.984375 3.359375 -3.203125 C 3.515625 -3.234375 3.753906 -3.257812 4.078125 -3.28125 C 4.453125 -3.3125 4.691406 -3.332031 4.796875 -3.34375 C 4.710938 -3.78125 4.597656 -4.351562 4.453125 -5.0625 Z M 4.453125 -5.0625 "/></g></g></g><g fill="#e5e7e9" fill-opacity="1"><g transform="translate(146.854605, 233.24796)"><g><path d="M 4.484375 -0.203125 C 3.703125 0.0976562 2.707031 0.25 1.5 0.25 C 1.289062 0.25 1.109375 0.164062 0.953125 0 C 0.796875 -0.175781 0.71875 -0.359375 0.71875 -0.546875 L 0.71875 -5.9375 C 0.707031 -6.164062 0.695312 -6.394531 0.6875 -6.625 C 0.675781 -6.882812 0.6875 -7.109375 0.71875 -7.296875 C 0.757812 -7.609375 1.050781 -7.800781 1.59375 -7.875 C 1.851562 -7.945312 2.28125 -7.984375 2.875 -7.984375 C 3.519531 -7.984375 4.132812 -7.773438 4.71875 -7.359375 C 5.40625 -6.878906 5.75 -6.28125 5.75 -5.5625 C 5.75 -5.164062 5.675781 -4.835938 5.53125 -4.578125 C 5.425781 -4.359375 5.234375 -4.125 4.953125 -3.875 C 5.285156 -3.71875 5.578125 -3.476562 5.828125 -3.15625 C 6.117188 -2.789062 6.265625 -2.429688 6.265625 -2.078125 C 6.265625 -1.628906 6.015625 -1.203125 5.515625 -0.796875 C 5.191406 -0.535156 4.847656 -0.335938 4.484375 -0.203125 Z M 2.875 -6.609375 C 2.4375 -6.609375 2.175781 -6.601562 2.09375 -6.59375 L 2.09375 -4.453125 C 2.40625 -4.410156 2.640625 -4.398438 2.796875 -4.421875 C 3.828125 -4.492188 4.34375 -4.875 4.34375 -5.5625 C 4.34375 -5.800781 4.191406 -6.03125 3.890625 -6.25 C 3.578125 -6.488281 3.238281 -6.609375 2.875 -6.609375 Z M 3.46875 -3.015625 C 3.164062 -3.015625 2.707031 -3.023438 2.09375 -3.046875 L 2.09375 -1.140625 C 2.675781 -1.171875 3.304688 -1.285156 3.984375 -1.484375 C 4.585938 -1.648438 4.882812 -1.832031 4.875 -2.03125 C 4.863281 -2.289062 4.671875 -2.523438 4.296875 -2.734375 C 4.003906 -2.890625 3.726562 -2.984375 3.46875 -3.015625 Z M 3.46875 -3.015625 "/></g></g></g><g fill="#e5e7e9" fill-opacity="1"><g transform="translate(157.473884, 233.24796)"><g><path d="M 6.578125 -6.09375 C 6.316406 -6.09375 5.90625 -6.109375 5.34375 -6.140625 C 4.8125 -6.179688 4.398438 -6.203125 4.109375 -6.203125 C 4.128906 -5.816406 4.175781 -5.128906 4.25 -4.140625 C 4.320312 -3.265625 4.359375 -2.570312 4.359375 -2.0625 C 4.359375 -1.945312 4.367188 -1.773438 4.390625 -1.546875 C 4.421875 -1.316406 4.4375 -1.144531 4.4375 -1.03125 C 4.4375 -0.78125 4.378906 -0.550781 4.265625 -0.34375 C 4.128906 -0.0820312 3.929688 0.046875 3.671875 0.046875 C 3.484375 0.046875 3.320312 -0.015625 3.1875 -0.140625 C 3.019531 -0.265625 2.9375 -0.429688 2.9375 -0.640625 C 2.9375 -0.679688 2.945312 -0.75 2.96875 -0.84375 C 2.988281 -0.945312 3 -1.023438 3 -1.078125 C 3 -1.234375 2.984375 -1.46875 2.953125 -1.78125 C 2.929688 -2.09375 2.921875 -2.328125 2.921875 -2.484375 C 2.921875 -2.941406 2.882812 -3.554688 2.8125 -4.328125 C 2.738281 -5.222656 2.691406 -5.835938 2.671875 -6.171875 L 2.40625 -6.171875 C 1.65625 -6.171875 1.054688 -6.226562 0.609375 -6.34375 C 0.234375 -6.4375 0.046875 -6.65625 0.046875 -7 C 0.046875 -7.175781 0.109375 -7.332031 0.234375 -7.46875 C 0.378906 -7.632812 0.566406 -7.710938 0.796875 -7.703125 C 0.910156 -7.691406 1.175781 -7.660156 1.59375 -7.609375 C 1.9375 -7.578125 2.207031 -7.5625 2.40625 -7.5625 C 2.613281 -7.5625 2.921875 -7.5625 3.328125 -7.5625 C 3.742188 -7.570312 4.054688 -7.578125 4.265625 -7.578125 C 4.523438 -7.578125 4.910156 -7.554688 5.421875 -7.515625 C 5.941406 -7.484375 6.328125 -7.46875 6.578125 -7.46875 C 6.785156 -7.46875 6.957031 -7.398438 7.09375 -7.265625 C 7.226562 -7.140625 7.296875 -6.976562 7.296875 -6.78125 C 7.296875 -6.59375 7.226562 -6.429688 7.09375 -6.296875 C 6.957031 -6.160156 6.785156 -6.09375 6.578125 -6.09375 Z M 6.578125 -6.09375 "/></g></g></g><g fill="#e5e7e9" fill-opacity="1"><g transform="translate(168.774109, 233.24796)"><g><path d="M 4 0.3125 C 2.988281 0.3125 2.132812 0.0234375 1.4375 -0.546875 C 0.6875 -1.171875 0.3125 -1.972656 0.3125 -2.953125 C 0.3125 -4.097656 0.671875 -5.144531 1.390625 -6.09375 C 2.203125 -7.164062 3.222656 -7.703125 4.453125 -7.703125 C 5.628906 -7.703125 6.507812 -7.429688 7.09375 -6.890625 C 7.6875 -6.347656 7.984375 -5.53125 7.984375 -4.4375 C 7.984375 -3.289062 7.648438 -2.25 6.984375 -1.3125 C 6.222656 -0.226562 5.226562 0.3125 4 0.3125 Z M 4.453125 -6.328125 C 3.691406 -6.328125 3.039062 -5.957031 2.5 -5.21875 C 2 -4.539062 1.75 -3.785156 1.75 -2.953125 C 1.75 -2.390625 1.96875 -1.929688 2.40625 -1.578125 C 2.820312 -1.234375 3.351562 -1.0625 4 -1.0625 C 4.738281 -1.0625 5.359375 -1.429688 5.859375 -2.171875 C 6.316406 -2.835938 6.546875 -3.59375 6.546875 -4.4375 C 6.546875 -5.15625 6.382812 -5.648438 6.0625 -5.921875 C 5.757812 -6.191406 5.222656 -6.328125 4.453125 -6.328125 Z M 4.453125 -6.328125 "/></g></g></g><g fill="#e5e7e9" fill-opacity="1"><g transform="translate(181.141485, 233.24796)"><g><path d="M 2.6875 -4.015625 C 2.53125 -3.460938 2.316406 -2.632812 2.046875 -1.53125 C 1.984375 -1.144531 1.921875 -0.765625 1.859375 -0.390625 C 1.722656 0.0859375 1.46875 0.328125 1.09375 0.328125 C 0.851562 0.328125 0.664062 0.25 0.53125 0.09375 C 0.414062 -0.0390625 0.359375 -0.203125 0.359375 -0.390625 C 0.359375 -0.929688 0.476562 -1.597656 0.71875 -2.390625 C 1.0625 -3.578125 1.25 -4.234375 1.28125 -4.359375 C 1.375 -4.878906 1.472656 -5.398438 1.578125 -5.921875 C 1.734375 -6.640625 1.898438 -7.117188 2.078125 -7.359375 C 2.253906 -7.597656 2.476562 -7.71875 2.75 -7.71875 C 3.0625 -7.71875 3.289062 -7.5625 3.4375 -7.25 C 3.570312 -6.957031 3.710938 -6.351562 3.859375 -5.4375 C 4.015625 -4.550781 4.238281 -3.601562 4.53125 -2.59375 C 4.914062 -3.59375 5.273438 -4.695312 5.609375 -5.90625 L 5.890625 -7.0625 C 6.078125 -7.550781 6.363281 -7.796875 6.75 -7.796875 C 7.113281 -7.796875 7.382812 -7.515625 7.5625 -6.953125 C 7.632812 -6.722656 7.71875 -6.300781 7.8125 -5.6875 C 8 -4.238281 8.242188 -3 8.546875 -1.96875 C 8.847656 -0.925781 9 -0.359375 9 -0.265625 C 9 -0.0664062 8.921875 0.0976562 8.765625 0.234375 C 8.609375 0.359375 8.4375 0.421875 8.25 0.421875 C 7.882812 0.421875 7.613281 0.15625 7.4375 -0.375 L 7.15625 -1.59375 C 6.988281 -2.207031 6.8125 -3.085938 6.625 -4.234375 C 6.46875 -3.773438 6.210938 -3.0625 5.859375 -2.09375 L 5.5625 -1.15625 C 5.4375 -0.78125 5.304688 -0.476562 5.171875 -0.25 C 4.984375 0.0703125 4.734375 0.234375 4.421875 0.234375 C 4.097656 0.234375 3.851562 0.046875 3.6875 -0.328125 L 3.40625 -1.28125 C 3.132812 -2.144531 2.894531 -3.054688 2.6875 -4.015625 Z M 2.6875 -4.015625 "/></g></g></g><g fill="#e5e7e9" fill-opacity="1"><g transform="translate(194.387991, 233.24796)"><g><path d="M 4 0.3125 C 2.988281 0.3125 2.132812 0.0234375 1.4375 -0.546875 C 0.6875 -1.171875 0.3125 -1.972656 0.3125 -2.953125 C 0.3125 -4.097656 0.671875 -5.144531 1.390625 -6.09375 C 2.203125 -7.164062 3.222656 -7.703125 4.453125 -7.703125 C 5.628906 -7.703125 6.507812 -7.429688 7.09375 -6.890625 C 7.6875 -6.347656 7.984375 -5.53125 7.984375 -4.4375 C 7.984375 -3.289062 7.648438 -2.25 6.984375 -1.3125 C 6.222656 -0.226562 5.226562 0.3125 4 0.3125 Z M 4.453125 -6.328125 C 3.691406 -6.328125 3.039062 -5.957031 2.5 -5.21875 C 2 -4.539062 1.75 -3.785156 1.75 -2.953125 C 1.75 -2.390625 1.96875 -1.929688 2.40625 -1.578125 C 2.820312 -1.234375 3.351562 -1.0625 4 -1.0625 C 4.738281 -1.0625 5.359375 -1.429688 5.859375 -2.171875 C 6.316406 -2.835938 6.546875 -3.59375 6.546875 -4.4375 C 6.546875 -5.15625 6.382812 -5.648438 6.0625 -5.921875 C 5.757812 -6.191406 5.222656 -6.328125 4.453125 -6.328125 Z M 4.453125 -6.328125 "/></g></g></g><g fill="#e5e7e9" fill-opacity="1"><g transform="translate(206.755367, 233.24796)"><g><path d="M 2.859375 0.078125 C 2.703125 0.078125 2.484375 0.0664062 2.203125 0.046875 C 1.890625 0.0351562 1.675781 0.03125 1.5625 0.03125 C 1.476562 0.0507812 1.398438 0.0625 1.328125 0.0625 C 0.828125 0.0625 0.578125 -0.285156 0.578125 -0.984375 C 0.578125 -1.078125 0.601562 -1.363281 0.65625 -1.84375 C 0.71875 -2.488281 0.75 -3.085938 0.75 -3.640625 C 0.75 -3.960938 0.734375 -4.445312 0.703125 -5.09375 C 0.671875 -5.738281 0.65625 -6.222656 0.65625 -6.546875 C 0.65625 -6.960938 0.6875 -7.234375 0.75 -7.359375 C 0.875 -7.585938 1.144531 -7.703125 1.5625 -7.703125 C 1.8125 -7.703125 2.191406 -7.707031 2.703125 -7.71875 C 3.210938 -7.726562 3.597656 -7.734375 3.859375 -7.734375 L 5.140625 -7.734375 C 5.347656 -7.734375 5.515625 -7.671875 5.640625 -7.546875 C 5.773438 -7.421875 5.84375 -7.257812 5.84375 -7.0625 C 5.84375 -6.863281 5.773438 -6.703125 5.640625 -6.578125 C 5.515625 -6.453125 5.347656 -6.390625 5.140625 -6.390625 C 4.773438 -6.390625 3.757812 -6.378906 2.09375 -6.359375 C 2.113281 -5.929688 2.140625 -5.46875 2.171875 -4.96875 C 2.347656 -4.976562 2.492188 -4.984375 2.609375 -4.984375 C 3.679688 -4.984375 4.472656 -4.820312 4.984375 -4.5 C 5.617188 -4.09375 5.9375 -3.390625 5.9375 -2.390625 C 5.9375 -1.535156 5.628906 -0.894531 5.015625 -0.46875 C 4.484375 -0.101562 3.765625 0.078125 2.859375 0.078125 Z M 2.828125 -3.640625 C 2.660156 -3.640625 2.445312 -3.632812 2.1875 -3.625 C 2.1875 -3.550781 2.1875 -3.472656 2.1875 -3.390625 C 2.1875 -3.023438 2.148438 -2.320312 2.078125 -1.28125 C 2.398438 -1.28125 2.660156 -1.28125 2.859375 -1.28125 C 3.972656 -1.28125 4.53125 -1.648438 4.53125 -2.390625 C 4.53125 -2.898438 4.382812 -3.242188 4.09375 -3.421875 C 3.863281 -3.566406 3.441406 -3.640625 2.828125 -3.640625 Z M 2.828125 -3.640625 "/></g></g></g><g fill="#e5e7e9" fill-opacity="1"><g transform="translate(217.105318, 233.24796)"><g><path d="M 5.796875 -5 C 5.429688 -4.664062 4.921875 -4.144531 4.265625 -3.4375 C 3.742188 -2.820312 3.179688 -2.097656 2.578125 -1.265625 C 2.410156 -1.035156 2.15625 -0.679688 1.8125 -0.203125 C 1.644531 0.015625 1.445312 0.125 1.21875 0.125 C 0.988281 0.125 0.800781 0.0546875 0.65625 -0.078125 C 0.519531 -0.222656 0.457031 -0.40625 0.46875 -0.625 C 0.582031 -2.570312 0.640625 -3.65625 0.640625 -3.875 C 0.640625 -4.757812 0.625 -5.578125 0.59375 -6.328125 C 0.582031 -6.378906 0.570312 -6.515625 0.5625 -6.734375 C 0.539062 -6.898438 0.53125 -7.039062 0.53125 -7.15625 C 0.53125 -7.34375 0.597656 -7.5 0.734375 -7.625 C 0.867188 -7.757812 1.039062 -7.828125 1.25 -7.828125 C 1.445312 -7.828125 1.613281 -7.757812 1.75 -7.625 C 1.882812 -7.5 1.953125 -7.34375 1.953125 -7.15625 C 1.953125 -7.050781 1.960938 -6.921875 1.984375 -6.765625 C 1.992188 -6.566406 2 -6.4375 2 -6.375 C 2.019531 -5.925781 2.03125 -5.363281 2.03125 -4.6875 C 2.03125 -4.144531 2.019531 -3.613281 2 -3.09375 C 2.757812 -4.082031 3.648438 -5.039062 4.671875 -5.96875 C 4.835938 -6.132812 5.039062 -6.367188 5.28125 -6.671875 C 5.570312 -7.046875 5.769531 -7.285156 5.875 -7.390625 C 5.96875 -7.703125 6.191406 -7.859375 6.546875 -7.859375 C 6.742188 -7.859375 6.910156 -7.796875 7.046875 -7.671875 C 7.179688 -7.554688 7.25 -7.398438 7.25 -7.203125 C 7.25 -6.992188 7.238281 -6.679688 7.21875 -6.265625 C 7.207031 -5.847656 7.203125 -5.535156 7.203125 -5.328125 C 7.203125 -5.085938 7.195312 -4.726562 7.1875 -4.25 C 7.1875 -3.78125 7.1875 -3.425781 7.1875 -3.1875 C 7.1875 -2.875 7.171875 -2.410156 7.140625 -1.796875 C 7.117188 -1.179688 7.109375 -0.71875 7.109375 -0.40625 C 7.109375 -0.21875 7.039062 -0.0625 6.90625 0.0625 C 6.769531 0.195312 6.601562 0.265625 6.40625 0.265625 C 6.195312 0.265625 6.023438 0.195312 5.890625 0.0625 C 5.753906 -0.0625 5.6875 -0.21875 5.6875 -0.40625 C 5.6875 -0.71875 5.695312 -1.1875 5.71875 -1.8125 C 5.75 -2.4375 5.765625 -2.90625 5.765625 -3.21875 C 5.765625 -3.445312 5.769531 -3.742188 5.78125 -4.109375 C 5.789062 -4.578125 5.796875 -4.875 5.796875 -5 Z M 5.796875 -5 "/></g></g></g><g fill="#e5e7e9" fill-opacity="1"><g transform="translate(228.944199, 233.24796)"><g><path d="M 6.296875 0.109375 C 5.828125 0.109375 5.59375 -0.238281 5.59375 -0.9375 C 5.59375 -1.238281 5.597656 -1.6875 5.609375 -2.28125 C 5.617188 -2.882812 5.625 -3.335938 5.625 -3.640625 C 5.625 -3.960938 5.617188 -4.414062 5.609375 -5 C 5.585938 -5.625 5.578125 -6.070312 5.578125 -6.34375 C 5.410156 -6.34375 5.273438 -6.34375 5.171875 -6.34375 C 4.941406 -6.34375 4.59375 -6.347656 4.125 -6.359375 C 3.65625 -6.378906 3.300781 -6.390625 3.0625 -6.390625 C 2.976562 -6.390625 2.882812 -6.390625 2.78125 -6.390625 C 2.820312 -5.953125 2.84375 -5.460938 2.84375 -4.921875 C 2.84375 -4.617188 2.832031 -4.160156 2.8125 -3.546875 C 2.800781 -2.941406 2.796875 -2.488281 2.796875 -2.1875 C 2.796875 -1.445312 2.660156 -0.898438 2.390625 -0.546875 C 2.066406 -0.117188 1.515625 0.09375 0.734375 0.09375 C 0.535156 0.09375 0.367188 0.03125 0.234375 -0.09375 C 0.0976562 -0.226562 0.03125 -0.390625 0.03125 -0.578125 C 0.03125 -0.847656 0.113281 -1.03125 0.28125 -1.125 C 0.351562 -1.15625 0.550781 -1.195312 0.875 -1.25 C 1.03125 -1.28125 1.140625 -1.335938 1.203125 -1.421875 C 1.316406 -1.566406 1.375 -1.820312 1.375 -2.1875 C 1.375 -2.488281 1.382812 -2.941406 1.40625 -3.546875 C 1.425781 -4.160156 1.4375 -4.617188 1.4375 -4.921875 C 1.4375 -5.617188 1.398438 -6.226562 1.328125 -6.75 C 1.265625 -6.84375 1.234375 -6.953125 1.234375 -7.078125 C 1.234375 -7.265625 1.296875 -7.421875 1.421875 -7.546875 C 1.554688 -7.679688 1.726562 -7.75 1.9375 -7.75 C 2.0625 -7.75 2.25 -7.738281 2.5 -7.71875 C 2.75 -7.707031 2.9375 -7.703125 3.0625 -7.703125 L 6.28125 -7.703125 C 6.476562 -7.703125 6.644531 -7.632812 6.78125 -7.5 C 6.925781 -7.375 7 -7.210938 7 -7.015625 C 7 -6.359375 7.015625 -5.359375 7.046875 -4.015625 C 7.078125 -2.679688 7.09375 -1.6875 7.09375 -1.03125 C 7.09375 -0.269531 6.828125 0.109375 6.296875 0.109375 Z M 6.296875 0.109375 "/></g></g></g><g fill="#e5e7e9" fill-opacity="1"><g transform="translate(240.691611, 233.24796)"><g><path d="M 5.796875 -5 C 5.429688 -4.664062 4.921875 -4.144531 4.265625 -3.4375 C 3.742188 -2.820312 3.179688 -2.097656 2.578125 -1.265625 C 2.410156 -1.035156 2.15625 -0.679688 1.8125 -0.203125 C 1.644531 0.015625 1.445312 0.125 1.21875 0.125 C 0.988281 0.125 0.800781 0.0546875 0.65625 -0.078125 C 0.519531 -0.222656 0.457031 -0.40625 0.46875 -0.625 C 0.582031 -2.570312 0.640625 -3.65625 0.640625 -3.875 C 0.640625 -4.757812 0.625 -5.578125 0.59375 -6.328125 C 0.582031 -6.378906 0.570312 -6.515625 0.5625 -6.734375 C 0.539062 -6.898438 0.53125 -7.039062 0.53125 -7.15625 C 0.53125 -7.34375 0.597656 -7.5 0.734375 -7.625 C 0.867188 -7.757812 1.039062 -7.828125 1.25 -7.828125 C 1.445312 -7.828125 1.613281 -7.757812 1.75 -7.625 C 1.882812 -7.5 1.953125 -7.34375 1.953125 -7.15625 C 1.953125 -7.050781 1.960938 -6.921875 1.984375 -6.765625 C 1.992188 -6.566406 2 -6.4375 2 -6.375 C 2.019531 -5.925781 2.03125 -5.363281 2.03125 -4.6875 C 2.03125 -4.144531 2.019531 -3.613281 2 -3.09375 C 2.757812 -4.082031 3.648438 -5.039062 4.671875 -5.96875 C 4.835938 -6.132812 5.039062 -6.367188 5.28125 -6.671875 C 5.570312 -7.046875 5.769531 -7.285156 5.875 -7.390625 C 5.96875 -7.703125 6.191406 -7.859375 6.546875 -7.859375 C 6.742188 -7.859375 6.910156 -7.796875 7.046875 -7.671875 C 7.179688 -7.554688 7.25 -7.398438 7.25 -7.203125 C 7.25 -6.992188 7.238281 -6.679688 7.21875 -6.265625 C 7.207031 -5.847656 7.203125 -5.535156 7.203125 -5.328125 C 7.203125 -5.085938 7.195312 -4.726562 7.1875 -4.25 C 7.1875 -3.78125 7.1875 -3.425781 7.1875 -3.1875 C 7.1875 -2.875 7.171875 -2.410156 7.140625 -1.796875 C 7.117188 -1.179688 7.109375 -0.71875 7.109375 -0.40625 C 7.109375 -0.21875 7.039062 -0.0625 6.90625 0.0625 C 6.769531 0.195312 6.601562 0.265625 6.40625 0.265625 C 6.195312 0.265625 6.023438 0.195312 5.890625 0.0625 C 5.753906 -0.0625 5.6875 -0.21875 5.6875 -0.40625 C 5.6875 -0.71875 5.695312 -1.1875 5.71875 -1.8125 C 5.75 -2.4375 5.765625 -2.90625 5.765625 -3.21875 C 5.765625 -3.445312 5.769531 -3.742188 5.78125 -4.109375 C 5.789062 -4.578125 5.796875 -4.875 5.796875 -5 Z M 5.796875 -5 "/></g></g></g></svg>